<svg width="25" height="29" viewBox="0 0 25 29" fill="none" xmlns="http://www.w3.org/2000/svg">
<path d="M6.53203 8.65242L18.7706 14.5258C19.804 15.0218 20.2427 16.2324 19.7708 17.2856C19.2529 18.4413 17.8534 18.9464 16.7295 18.3831L12.3596 16.1928L8.47659 14.3399L1.56365 10.7769C0.501422 10.2295 -0.107968 9.10372 0.0158566 7.91769C0.141307 6.71606 0.994307 5.69004 2.17368 5.32217L11.6091 2.37921L17.2328 0.651578L19.4303 0.076548C21.0413 -0.345007 22.4949 1.03982 22.1106 2.62995C21.9207 3.41585 21.3075 4.0463 20.5153 4.27011L6.58181 8.20671C6.48603 8.23375 6.41493 8.31446 6.40178 8.411C6.38806 8.51169 6.44021 8.60838 6.53203 8.65242Z" fill="url(#paint0_linear_68_1031)"/>
<path d="M4.47183 22.7057L17.4702 19.5006C17.5664 19.4769 17.6389 19.3973 17.652 19.3012C17.6648 19.2071 17.6182 19.1164 17.5342 19.072L10.7046 15.4631L2.09811 11.0731C1.64605 10.8426 1.24373 10.5306 0.911516 10.1531L0.695672 9.90784C0.594547 9.7929 0.510212 9.66454 0.445056 9.52634C-0.0841187 8.40385 0.782922 7.09557 2.05602 7.09557H6.14211L6.50077 7.7295C6.91598 8.46346 7.54636 9.05506 8.31264 9.42999L14.1047 12.2639L18.4922 14.4087L22.2678 16.3253C23.5217 16.9055 24.2397 18.2137 24.0537 19.5792L24.0374 19.6991C23.8685 20.9397 23.0181 22.0052 21.8259 22.4703L6.25836 28.5435C3.94139 29.4474 1.58327 27.5144 2.09402 25.1298C2.34727 23.9474 3.27605 23.0005 4.47183 22.7057Z" fill="url(#paint1_linear_68_1031)"/>
<defs>
<linearGradient id="paint0_linear_68_1031" x1="0" y1="9.30707" x2="22.1729" y2="9.30707" gradientUnits="userSpaceOnUse">
<stop stop-color="#3913A8"/>
<stop offset="1" stop-color="#4713E0"/>
</linearGradient>
<linearGradient id="paint1_linear_68_1031" x1="0.287109" y1="17.9329" x2="24.0828" y2="17.9329" gradientUnits="userSpaceOnUse">
<stop stop-color="#3913A8"/>
<stop offset="1" stop-color="#4713E0"/>
</linearGradient>
</defs>
</svg>
