<svg width="33" height="33" viewBox="0 0 33 33" fill="none" xmlns="http://www.w3.org/2000/svg">
<g clip-path="url(#clip0_68_1109)">
<path d="M16.3196 17.1176C18.4929 17.1176 20.4129 17.6376 21.9729 18.3176C23.4129 18.9576 24.3196 20.3976 24.3196 21.9576V22.7843C24.3196 23.5176 23.7196 24.1176 22.9862 24.1176H9.65291C8.91958 24.1176 8.31958 23.5176 8.31958 22.7843V21.971C8.31958 20.3976 9.22625 18.9576 10.6662 18.331C12.2262 17.6376 14.1462 17.1176 16.3196 17.1176ZM5.65291 17.451C7.11958 17.451 8.31958 16.251 8.31958 14.7843C8.31958 13.3176 7.11958 12.1176 5.65291 12.1176C4.18625 12.1176 2.98625 13.3176 2.98625 14.7843C2.98625 16.251 4.18625 17.451 5.65291 17.451ZM7.15958 18.9176C6.66625 18.8376 6.17291 18.7843 5.65291 18.7843C4.33291 18.7843 3.07958 19.0643 1.94625 19.5576C0.95958 19.9843 0.31958 20.9443 0.31958 22.0243V22.7843C0.31958 23.5176 0.91958 24.1176 1.65291 24.1176H6.31958V21.971C6.31958 20.8643 6.62625 19.8243 7.15958 18.9176ZM26.9862 17.451C28.4529 17.451 29.6529 16.251 29.6529 14.7843C29.6529 13.3176 28.4529 12.1176 26.9862 12.1176C25.5196 12.1176 24.3196 13.3176 24.3196 14.7843C24.3196 16.251 25.5196 17.451 26.9862 17.451ZM32.3196 22.0243C32.3196 20.9443 31.6796 19.9843 30.6929 19.5576C29.5596 19.0643 28.3062 18.7843 26.9862 18.7843C26.4662 18.7843 25.9729 18.8376 25.4796 18.9176C26.0129 19.8243 26.3196 20.8643 26.3196 21.971V24.1176H30.9862C31.7196 24.1176 32.3196 23.5176 32.3196 22.7843V22.0243ZM16.3196 8.11765C18.5329 8.11765 20.3196 9.90431 20.3196 12.1176C20.3196 14.331 18.5329 16.1176 16.3196 16.1176C14.1062 16.1176 12.3196 14.331 12.3196 12.1176C12.3196 9.90431 14.1062 8.11765 16.3196 8.11765Z" fill="#4A13E9"/>
</g>
<defs>
<clipPath id="clip0_68_1109">
<rect width="32" height="32" fill="white" transform="translate(0.31958 0.117645)"/>
</clipPath>
</defs>
</svg>
