<svg width="17" height="16" viewBox="0 0 17 16" fill="none" xmlns="http://www.w3.org/2000/svg">
<path d="M5.11548 6.66667V14.6667" stroke="#454545" stroke-width="1.33333" stroke-linecap="round" stroke-linejoin="round"/>
<path d="M10.4339 3.92L9.7691 6.66666H13.645C13.8514 6.66666 14.055 6.71486 14.2396 6.80743C14.4243 6.9 14.5849 7.0344 14.7087 7.2C14.8326 7.36559 14.9163 7.55783 14.9532 7.76148C14.9901 7.96514 14.9793 8.17462 14.9215 8.37333L13.3724 13.7067C13.2919 13.9836 13.1239 14.2269 12.8938 14.4C12.6636 14.5731 12.3837 14.6667 12.096 14.6667H3.1209C2.76826 14.6667 2.43006 14.5262 2.1807 14.2761C1.93135 14.0261 1.79126 13.687 1.79126 13.3333V8C1.79126 7.64637 1.93135 7.30723 2.1807 7.05719C2.43006 6.80714 2.76826 6.66666 3.1209 6.66666H4.9558C5.20317 6.66653 5.4456 6.5972 5.65583 6.46648C5.86606 6.33575 6.03575 6.1488 6.14583 5.92666L8.43946 1.33333C8.75297 1.33722 9.06156 1.41211 9.34215 1.55239C9.62275 1.69268 9.86811 1.89473 10.0599 2.14346C10.2517 2.39219 10.3849 2.68117 10.4497 2.9888C10.5145 3.29642 10.5091 3.61475 10.4339 3.92Z" stroke="#454545" stroke-width="1.33333" stroke-linecap="round" stroke-linejoin="round"/>
</svg>
